<svg width="22" height="6" viewBox="0 0 22 6" fill="none" xmlns="http://www.w3.org/2000/svg">
<path d="M19 5.66667C17.5272 5.66667 16.3333 4.47276 16.3333 3C16.3333 1.52724 17.5272 0.333336 19 0.333336C20.4728 0.333336 21.6667 1.52724 21.6667 3C21.6667 3.70725 21.3857 4.38552 20.8856 4.88562C20.3855 5.38572 19.7072 5.66667 19 5.66667ZM11 5.66667C9.52724 5.66667 8.33334 4.47276 8.33334 3C8.33334 1.52724 9.52724 0.333336 11 0.333336C12.4728 0.333336 13.6667 1.52724 13.6667 3C13.6667 3.70725 13.3857 4.38552 12.8856 4.88562C12.3855 5.38572 11.7072 5.66667 11 5.66667ZM3 5.66667C1.52724 5.66667 0.333336 4.47276 0.333336 3C0.333336 1.52724 1.52724 0.333336 3 0.333336C4.47276 0.333336 5.66667 1.52724 5.66667 3C5.66667 3.70725 5.38572 4.38552 4.88562 4.88562C4.38552 5.38572 3.70725 5.66667 3 5.66667Z" fill="#9A41FE"/>
</svg>
